<svg xmlns="http://www.w3.org/2000/svg" viewBox="0 0 1000 820" width="1000" height="820" role="img" aria-label="Qwen3.8 Flash Next long-context prefill and MTP decode throughput on DGX Spark">
<style>
  .bg { fill: #ffffff; }
  text { font-family: DejaVu Sans, Arial, sans-serif; }
  .title { font-size: 17px; font-weight: 600; fill: #1f2329; }
  .subtitle { font-size: 12.5px; fill: #566174; }
  .panel-title { font-size: 14px; font-weight: 600; fill: #1f2329; }
  .axis-label { font-size: 11px; fill: #566174; }
  .callout { font-size: 12px; font-weight: 700; fill: #1f8a5a; }
  .grid { stroke: #eef0f3; stroke-width: 0.8; }
  .axis { stroke: #c8ccd2; stroke-width: 1; }
  .line-result { fill: none; stroke: #2fa97a; stroke-width: 2.4; }
  .dot-result { fill: #2fa97a; }
  .area { fill: #d5eee5; stroke: none; }
  .stat-result { font-family: DejaVu Sans Mono, monospace; font-size: 11.5px; font-weight: 600; fill: #2fa97a; }
</style>
<rect class="bg" x="0" y="0" width="1000" height="820"/>
<text class="title" x="500" y="29" text-anchor="middle">DGX Spark (GB10) throughput: Qwen3.8-Flash-Next on ds4-dfm-rs</text>
<text class="subtitle" x="500" y="51" text-anchor="middle">MQ-Q5 + SSD-PLE BF16 · ds4-bench ctx 2k-64k step 2k gen=128 · embedded MTP draft 2 · abdf25c</text>
<line class="grid" x1="82" y1="359.0" x2="958" y2="359.0"/>
<text class="axis-label" x="73" y="363.0" text-anchor="end">0</text>
<line class="grid" x1="82" y1="295.5" x2="958" y2="295.5"/>
<text class="axis-label" x="73" y="299.5" text-anchor="end">350</text>
<line class="grid" x1="82" y1="232.0" x2="958" y2="232.0"/>
<text class="axis-label" x="73" y="236.0" text-anchor="end">700</text>
<line class="grid" x1="82" y1="168.5" x2="958" y2="168.5"/>
<text class="axis-label" x="73" y="172.5" text-anchor="end">1050</text>
<line class="grid" x1="82" y1="105.0" x2="958" y2="105.0"/>
<text class="axis-label" x="73" y="109.0" text-anchor="end">1400</text>
<line class="grid" x1="82.0" y1="105" x2="82.0" y2="359"/>
<text class="axis-label" x="82.0" y="377.0" text-anchor="middle">2k</text>
<line class="grid" x1="308.1" y1="105" x2="308.1" y2="359"/>
<text class="axis-label" x="308.1" y="377.0" text-anchor="middle">18k</text>
<line class="grid" x1="534.1" y1="105" x2="534.1" y2="359"/>
<text class="axis-label" x="534.1" y="377.0" text-anchor="middle">34k</text>
<line class="grid" x1="731.9" y1="105" x2="731.9" y2="359"/>
<text class="axis-label" x="731.9" y="377.0" text-anchor="middle">48k</text>
<line class="grid" x1="958.0" y1="105" x2="958.0" y2="359"/>
<text class="axis-label" x="958.0" y="377.0" text-anchor="middle">64k</text>
<line class="axis" x1="82" y1="105" x2="82" y2="359"/>
<line class="axis" x1="82" y1="359" x2="958" y2="359"/>
<text class="axis-label" x="28" y="232.0" text-anchor="middle" transform="rotate(-90 28 232.0)">tok/s</text>
<text class="axis-label" x="520.0" y="398.0" text-anchor="middle">context tokens</text>
<text class="panel-title" x="520.0" y="92.0" text-anchor="middle">prefill (MTP prefix maintenance included)</text>
<polygon class="area" points="82.0,359.0 82.0,171.7 110.3,134.6 138.5,129.4 166.8,129.7 195.0,138.5 223.3,136.1 251.5,136.3 279.8,131.4 308.1,126.7 336.3,127.5 364.6,129.4 392.8,130.4 421.1,136.5 449.4,130.0 477.6,127.3 505.9,130.7 534.1,133.1 562.4,133.0 590.6,133.2 618.9,130.0 647.2,137.2 675.4,133.5 703.7,135.2 731.9,139.5 760.2,133.4 788.5,134.1 816.7,137.2 845.0,132.3 873.2,135.7 901.5,138.8 929.7,138.6 958.0,141.6 958.0,359.0"/>
<polyline class="line-result" points="82.0,171.7 110.3,134.6 138.5,129.4 166.8,129.7 195.0,138.5 223.3,136.1 251.5,136.3 279.8,131.4 308.1,126.7 336.3,127.5 364.6,129.4 392.8,130.4 421.1,136.5 449.4,130.0 477.6,127.3 505.9,130.7 534.1,133.1 562.4,133.0 590.6,133.2 618.9,130.0 647.2,137.2 675.4,133.5 703.7,135.2 731.9,139.5 760.2,133.4 788.5,134.1 816.7,137.2 845.0,132.3 873.2,135.7 901.5,138.8 929.7,138.6 958.0,141.6"/>
<circle class="dot-result" cx="82.0" cy="171.7" r="3"/>
<circle class="dot-result" cx="958.0" cy="141.6" r="3"/>
<text class="callout" x="90.0" y="162.7">1,032.6 @ 2k</text>
<text class="callout" x="950.0" y="132.6" text-anchor="end">1,198.5 @ 64k</text>
<text class="stat-result" x="92.0" y="345.0">mean 1,235.9 · max 1,280.6 · min 1,032.6</text>
<line class="grid" x1="82" y1="730.0" x2="958" y2="730.0"/>
<text class="axis-label" x="73" y="734.0" text-anchor="end">0</text>
<line class="grid" x1="82" y1="693.7" x2="958" y2="693.7"/>
<text class="axis-label" x="73" y="697.7" text-anchor="end">5</text>
<line class="grid" x1="82" y1="657.4" x2="958" y2="657.4"/>
<text class="axis-label" x="73" y="661.4" text-anchor="end">10</text>
<line class="grid" x1="82" y1="621.1" x2="958" y2="621.1"/>
<text class="axis-label" x="73" y="625.1" text-anchor="end">15</text>
<line class="grid" x1="82" y1="584.9" x2="958" y2="584.9"/>
<text class="axis-label" x="73" y="588.9" text-anchor="end">20</text>
<line class="grid" x1="82" y1="548.6" x2="958" y2="548.6"/>
<text class="axis-label" x="73" y="552.6" text-anchor="end">25</text>
<line class="grid" x1="82" y1="512.3" x2="958" y2="512.3"/>
<text class="axis-label" x="73" y="516.3" text-anchor="end">30</text>
<line class="grid" x1="82" y1="476.0" x2="958" y2="476.0"/>
<text class="axis-label" x="73" y="480.0" text-anchor="end">35</text>
<line class="grid" x1="82.0" y1="476" x2="82.0" y2="730"/>
<text class="axis-label" x="82.0" y="748.0" text-anchor="middle">2k</text>
<line class="grid" x1="308.1" y1="476" x2="308.1" y2="730"/>
<text class="axis-label" x="308.1" y="748.0" text-anchor="middle">18k</text>
<line class="grid" x1="534.1" y1="476" x2="534.1" y2="730"/>
<text class="axis-label" x="534.1" y="748.0" text-anchor="middle">34k</text>
<line class="grid" x1="731.9" y1="476" x2="731.9" y2="730"/>
<text class="axis-label" x="731.9" y="748.0" text-anchor="middle">48k</text>
<line class="grid" x1="958.0" y1="476" x2="958.0" y2="730"/>
<text class="axis-label" x="958.0" y="748.0" text-anchor="middle">64k</text>
<line class="axis" x1="82" y1="476" x2="82" y2="730"/>
<line class="axis" x1="82" y1="730" x2="958" y2="730"/>
<text class="axis-label" x="28" y="603.0" text-anchor="middle" transform="rotate(-90 28 603.0)">tok/s</text>
<text class="axis-label" x="520.0" y="769.0" text-anchor="middle">context tokens</text>
<text class="panel-title" x="520.0" y="463.0" text-anchor="middle">decode (embedded MTP draft 2)</text>
<polygon class="area" points="82.0,730.0 82.0,526.3 110.3,520.8 138.5,520.2 166.8,533.5 195.0,528.2 223.3,522.7 251.5,522.0 279.8,522.4 308.1,518.2 336.3,528.6 364.6,529.3 392.8,526.7 421.1,510.8 449.4,522.2 477.6,519.8 505.9,523.5 534.1,523.2 562.4,522.2 590.6,531.2 618.9,525.8 647.2,541.7 675.4,514.3 703.7,515.0 731.9,522.2 760.2,534.1 788.5,535.1 816.7,530.3 845.0,525.6 873.2,531.2 901.5,521.4 929.7,486.1 958.0,537.2 958.0,730.0"/>
<polyline class="line-result" points="82.0,526.3 110.3,520.8 138.5,520.2 166.8,533.5 195.0,528.2 223.3,522.7 251.5,522.0 279.8,522.4 308.1,518.2 336.3,528.6 364.6,529.3 392.8,526.7 421.1,510.8 449.4,522.2 477.6,519.8 505.9,523.5 534.1,523.2 562.4,522.2 590.6,531.2 618.9,525.8 647.2,541.7 675.4,514.3 703.7,515.0 731.9,522.2 760.2,534.1 788.5,535.1 816.7,530.3 845.0,525.6 873.2,531.2 901.5,521.4 929.7,486.1 958.0,537.2"/>
<circle class="dot-result" cx="82.0" cy="526.3" r="3"/>
<circle class="dot-result" cx="958.0" cy="537.2" r="3"/>
<text class="callout" x="90.0" y="517.3">28.1 @ 2k</text>
<text class="callout" x="950.0" y="528.2" text-anchor="end">26.6 @ 64k</text>
<text class="stat-result" x="92.0" y="716.0">mean 28.4 · max 33.6 · min 25.9</text>
<text class="subtitle" x="500" y="806" text-anchor="middle">warm-session incremental sweep · resident VMM owner (aligned Q8) · PLE cache 2 GiB / 16 workers · 2026-09-06</text>
</svg>
